<?xml version="1.0" encoding="utf-8"?>
<!-- Generator: Adobe Illustrator 25.1.0, SVG Export Plug-In . SVG Version: 6.00 Build 0)  -->
<svg version="1.1" id="Layer_1" xmlns="http://www.w3.org/2000/svg" xmlns:xlink="http://www.w3.org/1999/xlink" x="0px" y="0px"
	 viewBox="0 0 1000 1000" style="enable-background:new 0 0 1000 1000;" xml:space="preserve">
<style type="text/css">
	.st0{fill:#FFFFFF;}
	.st1{fill:#FEAE3E;}
	.st2{opacity:0.88;fill:url(#SVGID_1_);}
	.st3{opacity:0.88;fill:url(#SVGID_2_);}
	.st4{opacity:0.88;fill:url(#SVGID_3_);}
</style>
<polygon class="st0" points="995.69,58.7 921.49,440.41 683.53,517.75 719.91,330.49 645.45,354.67 535.78,390.32 634.44,390.32 
	591.06,613.53 346.46,693 366.4,590.51 396.5,435.58 222.52,492.1 314.76,492.1 281.75,662.03 252.78,811.05 14.41,887.96 
	120.31,343.14 "/>
<polygon class="st1" points="673.09,628.69 899.16,555.38 848.87,810.71 796.83,756.82 765.12,785.38 640.12,744.77 717.72,674.9 
	"/>
<linearGradient id="SVGID_1_" gradientUnits="userSpaceOnUse" x1="-55.2887" y1="521.3108" x2="232.7935" y2="880.671">
	<stop  offset="0" style="stop-color:#000000"/>
	<stop  offset="1" style="stop-color:#FFFFFF"/>
</linearGradient>
<polygon class="st2" points="14.41,887.96 281.75,662.03 252.78,811.05 "/>
<linearGradient id="SVGID_2_" gradientUnits="userSpaceOnUse" x1="267.014" y1="262.9359" x2="555.0962" y2="622.2961">
	<stop  offset="0" style="stop-color:#000000"/>
	<stop  offset="1" style="stop-color:#FFFFFF"/>
</linearGradient>
<polygon class="st3" points="603.28,390.32 634.44,390.32 591.06,613.53 346.46,693 366.4,590.51 "/>
<linearGradient id="SVGID_3_" gradientUnits="userSpaceOnUse" x1="603.2538" y1="-6.6117" x2="891.3359" y2="352.7485">
	<stop  offset="0" style="stop-color:#000000"/>
	<stop  offset="1" style="stop-color:#FFFFFF"/>
</linearGradient>
<polygon class="st4" points="995.69,58.7 921.49,440.41 683.53,517.75 719.91,330.49 645.45,354.67 "/>
</svg>
